<svg width="184" height="57" viewBox="0 0 184 57" fill="none" xmlns="http://www.w3.org/2000/svg">
<path d="M78.6455 44.4102C75.9385 44.4102 73.5117 43.7949 71.3652 42.5645C69.2188 41.334 67.5234 39.5498 66.2793 37.2119C65.0352 34.874 64.4131 32.0508 64.4131 28.7422C64.4131 25.4062 65.0352 22.5693 66.2793 20.2314C67.5371 17.8799 69.2393 16.0957 71.3857 14.8789C73.5459 13.6484 75.9658 13.0332 78.6455 13.0332C80.4229 13.0332 82.0703 13.2861 83.5879 13.792C85.1055 14.2842 86.4453 15.0088 87.6074 15.9658C88.7832 16.9092 89.7402 18.0713 90.4785 19.4521C91.2168 20.8193 91.6885 22.3848 91.8936 24.1484H85.3721C85.249 23.3145 85.0029 22.5625 84.6338 21.8926C84.2783 21.2227 83.8066 20.6553 83.2188 20.1904C82.6445 19.7256 81.9814 19.3701 81.2295 19.124C80.4912 18.8643 79.6777 18.7344 78.7891 18.7344C77.2305 18.7344 75.8564 19.1309 74.667 19.9238C73.4912 20.7031 72.5752 21.8379 71.9189 23.3281C71.2764 24.8047 70.9551 26.6094 70.9551 28.7422C70.9551 30.916 71.2832 32.748 71.9395 34.2383C72.5957 35.7148 73.5117 36.8291 74.6875 37.5811C75.8633 38.333 77.2236 38.709 78.7686 38.709C79.6299 38.709 80.4297 38.5928 81.168 38.3604C81.9062 38.1279 82.5625 37.793 83.1367 37.3555C83.7109 36.918 84.1895 36.3848 84.5723 35.7559C84.9688 35.1133 85.2354 34.3818 85.3721 33.5615H91.8936C91.7295 34.9697 91.3125 36.3232 90.6426 37.6221C89.9863 38.9209 89.0908 40.083 87.9561 41.1084C86.8213 42.1201 85.4746 42.9268 83.916 43.5283C82.3574 44.1162 80.6006 44.4102 78.6455 44.4102ZM101.43 13.4434V44H95.0928V13.4434H101.43ZM105.183 44V21.0723H111.52V44H105.183ZM108.341 18.1396C107.397 18.1396 106.591 17.8252 105.921 17.1963C105.251 16.5674 104.916 15.8086 104.916 14.9199C104.916 14.0313 105.251 13.2793 105.921 12.6641C106.591 12.0352 107.397 11.7207 108.341 11.7207C109.298 11.7207 110.111 12.0352 110.781 12.6641C111.451 13.2793 111.786 14.0313 111.786 14.9199C111.786 15.8086 111.451 16.5674 110.781 17.1963C110.111 17.8252 109.298 18.1396 108.341 18.1396ZM125.588 44.4512C123.25 44.4512 121.24 43.9521 119.559 42.9541C117.877 41.9424 116.585 40.5547 115.683 38.791C114.78 37.0137 114.329 34.9629 114.329 32.6387C114.329 30.2871 114.78 28.2227 115.683 26.4453C116.599 24.668 117.897 23.2803 119.579 22.2822C121.261 21.2842 123.264 20.7852 125.588 20.7852C127.584 20.7852 129.327 21.1475 130.817 21.8721C132.321 22.5967 133.511 23.6152 134.386 24.9277C135.261 26.2402 135.739 27.7852 135.821 29.5625H129.833C129.724 28.7969 129.491 28.127 129.136 27.5527C128.78 26.9785 128.309 26.5342 127.721 26.2197C127.133 25.9053 126.449 25.748 125.67 25.748C124.686 25.748 123.824 26.0146 123.086 26.5479C122.361 27.0674 121.794 27.8398 121.384 28.8652C120.987 29.877 120.789 31.1074 120.789 32.5566C120.789 34.0059 120.987 35.25 121.384 36.2891C121.794 37.3281 122.361 38.1211 123.086 38.668C123.824 39.2148 124.686 39.4883 125.67 39.4883C126.764 39.4883 127.687 39.1465 128.438 38.4629C129.19 37.7656 129.655 36.8086 129.833 35.5918H135.821C135.726 37.3418 135.254 38.8867 134.406 40.2266C133.559 41.5527 132.39 42.5918 130.899 43.3438C129.409 44.082 127.639 44.4512 125.588 44.4512Z" fill="#2E2936"/>
<path d="M144.312 37.3965L144.332 29.7881H145.255L152.576 21.0723H159.877L150.033 32.6182H148.495L144.312 37.3965ZM138.569 44V13.4434H144.906V44H138.569ZM152.863 44L146.137 34.0332L150.361 29.5215L160.308 44H152.863ZM170.992 44.4512C168.682 44.4512 166.679 43.959 164.983 42.9746C163.302 41.9766 162.003 40.5957 161.087 38.832C160.185 37.0547 159.733 34.9902 159.733 32.6387C159.733 30.2598 160.185 28.1885 161.087 26.4248C162.003 24.6475 163.302 23.2666 164.983 22.2822C166.679 21.2842 168.682 20.7852 170.992 20.7852C173.316 20.7852 175.319 21.2842 177.001 22.2822C178.696 23.2666 179.995 24.6475 180.897 26.4248C181.813 28.1885 182.271 30.2598 182.271 32.6387C182.271 34.9902 181.813 37.0547 180.897 38.832C179.995 40.5957 178.696 41.9766 177.001 42.9746C175.319 43.959 173.316 44.4512 170.992 44.4512ZM171.033 39.4883C172.086 39.4883 172.968 39.1943 173.679 38.6064C174.39 38.0049 174.923 37.1846 175.278 36.1455C175.647 35.1064 175.832 33.9238 175.832 32.5977C175.832 31.2578 175.647 30.0752 175.278 29.0498C174.923 28.0244 174.39 27.2178 173.679 26.6299C172.968 26.042 172.086 25.748 171.033 25.748C169.967 25.748 169.071 26.042 168.347 26.6299C167.636 27.2178 167.096 28.0244 166.727 29.0498C166.371 30.0752 166.193 31.2578 166.193 32.5977C166.193 33.9238 166.371 35.1064 166.727 36.1455C167.096 37.1846 167.636 38.0049 168.347 38.6064C169.071 39.1943 169.967 39.4883 171.033 39.4883Z" fill="#2E2936"/>
<path d="M40.4219 32.9354L41.6231 35.016C48.6449 35.5878 54.8257 32.5184 55.9998 28.5819C51.9373 33.0022 45.9667 33.1645 40.4219 32.9354Z" fill="#FC1C07"/>
<path d="M38.4004 29.4342L39.3493 31.0768C45.3927 30.6283 53.1859 29.7433 55.8212 24.7822C51.4543 28.9785 44.5344 29.0296 38.7392 29.4122C38.6512 29.4181 38.5367 29.4242 38.4004 29.4342Z" fill="#FC1C07"/>
<path d="M43.0021 37.4051L47.1531 44.5941H39.8445L28 24.0791H27.9995H27.999L16.1548 44.5941H8.84611L12.9969 37.4051C8.42164 37.6626 3.87763 36.6631 0.265625 31.9189C2.16879 45.5345 13.8593 56.0141 27.9995 56.0141C42.1399 56.0141 53.8302 45.5345 55.7333 31.9189C52.1213 36.6631 47.5773 37.6626 43.0021 37.4051Z" fill="#2D2737"/>
<path d="M18.2946 28.2291L27.9991 11.42H27.9997H28.0002L37.705 28.2291C38.4567 27.9591 39.1471 27.8136 39.5537 27.7305C45.2943 26.5537 51.3278 26.476 55.4566 22.4605C52.8827 9.64954 41.5686 0 27.9997 0C14.431 0 3.11683 9.64954 0.542969 22.4605C4.67199 26.476 10.7052 26.5537 16.4462 27.7305C16.8525 27.8136 17.5431 27.9591 18.2946 28.2291Z" fill="#FC1C07"/>
<path d="M14.3769 35.016L15.5779 32.9354C10.0331 33.1645 4.06229 33.0022 0 28.5819C1.17417 32.5184 7.35492 35.5878 14.3769 35.016Z" fill="#FC1C07"/>
<path d="M16.6511 31.0765L17.5995 29.4339C17.4634 29.4242 17.3491 29.4178 17.2607 29.4119C11.4653 29.0294 4.54528 28.9783 0.178711 24.782C2.81394 29.7433 10.6069 30.628 16.6511 31.0765Z" fill="#FC1C07"/>
</svg>
