<svg width="186" height="57" viewBox="0 0 186 57" fill="none" xmlns="http://www.w3.org/2000/svg">
<path d="M80.6455 45.4102C77.9385 45.4102 75.5117 44.7949 73.3652 43.5645C71.2188 42.334 69.5234 40.5498 68.2793 38.2119C67.0352 35.874 66.4131 33.0508 66.4131 29.7422C66.4131 26.4062 67.0352 23.5693 68.2793 21.2314C69.5371 18.8799 71.2393 17.0957 73.3857 15.8789C75.5459 14.6484 77.9658 14.0332 80.6455 14.0332C82.4229 14.0332 84.0703 14.2861 85.5879 14.792C87.1055 15.2842 88.4453 16.0088 89.6074 16.9658C90.7832 17.9092 91.7402 19.0713 92.4785 20.4521C93.2168 21.8193 93.6885 23.3848 93.8936 25.1484H87.3721C87.249 24.3145 87.0029 23.5625 86.6338 22.8926C86.2783 22.2227 85.8066 21.6553 85.2188 21.1904C84.6445 20.7256 83.9814 20.3701 83.2295 20.124C82.4912 19.8643 81.6777 19.7344 80.7891 19.7344C79.2305 19.7344 77.8564 20.1309 76.667 20.9238C75.4912 21.7031 74.5752 22.8379 73.9189 24.3281C73.2764 25.8047 72.9551 27.6094 72.9551 29.7422C72.9551 31.916 73.2832 33.748 73.9395 35.2383C74.5957 36.7148 75.5117 37.8291 76.6875 38.5811C77.8633 39.333 79.2236 39.709 80.7686 39.709C81.6299 39.709 82.4297 39.5928 83.168 39.3604C83.9062 39.1279 84.5625 38.793 85.1367 38.3555C85.7109 37.918 86.1895 37.3848 86.5723 36.7559C86.9688 36.1133 87.2354 35.3818 87.3721 34.5615H93.8936C93.7295 35.9697 93.3125 37.3232 92.6426 38.6221C91.9863 39.9209 91.0908 41.083 89.9561 42.1084C88.8213 43.1201 87.4746 43.9268 85.916 44.5283C84.3574 45.1162 82.6006 45.4102 80.6455 45.4102ZM103.43 14.4434V45H97.0928V14.4434H103.43ZM107.183 45V22.0723H113.52V45H107.183ZM110.341 19.1396C109.397 19.1396 108.591 18.8252 107.921 18.1963C107.251 17.5674 106.916 16.8086 106.916 15.9199C106.916 15.0313 107.251 14.2793 107.921 13.6641C108.591 13.0352 109.397 12.7207 110.341 12.7207C111.298 12.7207 112.111 13.0352 112.781 13.6641C113.451 14.2793 113.786 15.0313 113.786 15.9199C113.786 16.8086 113.451 17.5674 112.781 18.1963C112.111 18.8252 111.298 19.1396 110.341 19.1396ZM127.588 45.4512C125.25 45.4512 123.24 44.9521 121.559 43.9541C119.877 42.9424 118.585 41.5547 117.683 39.791C116.78 38.0137 116.329 35.9629 116.329 33.6387C116.329 31.2871 116.78 29.2227 117.683 27.4453C118.599 25.668 119.897 24.2803 121.579 23.2822C123.261 22.2842 125.264 21.7852 127.588 21.7852C129.584 21.7852 131.327 22.1475 132.817 22.8721C134.321 23.5967 135.511 24.6152 136.386 25.9277C137.261 27.2402 137.739 28.7852 137.821 30.5625H131.833C131.724 29.7969 131.491 29.127 131.136 28.5527C130.78 27.9785 130.309 27.5342 129.721 27.2197C129.133 26.9053 128.449 26.748 127.67 26.748C126.686 26.748 125.824 27.0146 125.086 27.5479C124.361 28.0674 123.794 28.8398 123.384 29.8652C122.987 30.877 122.789 32.1074 122.789 33.5566C122.789 35.0059 122.987 36.25 123.384 37.2891C123.794 38.3281 124.361 39.1211 125.086 39.668C125.824 40.2148 126.686 40.4883 127.67 40.4883C128.764 40.4883 129.687 40.1465 130.438 39.4629C131.19 38.7656 131.655 37.8086 131.833 36.5918H137.821C137.726 38.3418 137.254 39.8867 136.406 41.2266C135.559 42.5527 134.39 43.5918 132.899 44.3438C131.409 45.082 129.639 45.4512 127.588 45.4512ZM146.312 38.3965L146.332 30.7881H147.255L154.576 22.0723H161.877L152.033 33.6182H150.495L146.312 38.3965ZM140.569 45V14.4434H146.906V45H140.569ZM154.863 45L148.137 35.0332L152.361 30.5215L162.308 45H154.863ZM172.992 45.4512C170.682 45.4512 168.679 44.959 166.983 43.9746C165.302 42.9766 164.003 41.5957 163.087 39.832C162.185 38.0547 161.733 35.9902 161.733 33.6387C161.733 31.2598 162.185 29.1885 163.087 27.4248C164.003 25.6475 165.302 24.2666 166.983 23.2822C168.679 22.2842 170.682 21.7852 172.992 21.7852C175.316 21.7852 177.319 22.2842 179.001 23.2822C180.696 24.2666 181.995 25.6475 182.897 27.4248C183.813 29.1885 184.271 31.2598 184.271 33.6387C184.271 35.9902 183.813 38.0547 182.897 39.832C181.995 41.5957 180.696 42.9766 179.001 43.9746C177.319 44.959 175.316 45.4512 172.992 45.4512ZM173.033 40.4883C174.086 40.4883 174.968 40.1943 175.679 39.6064C176.39 39.0049 176.923 38.1846 177.278 37.1455C177.647 36.1064 177.832 34.9238 177.832 33.5977C177.832 32.2578 177.647 31.0752 177.278 30.0498C176.923 29.0244 176.39 28.2178 175.679 27.6299C174.968 27.042 174.086 26.748 173.033 26.748C171.967 26.748 171.071 27.042 170.347 27.6299C169.636 28.2178 169.096 29.0244 168.727 30.0498C168.371 31.0752 168.193 32.2578 168.193 33.5977C168.193 34.9238 168.371 36.1064 168.727 37.1455C169.096 38.1846 169.636 39.0049 170.347 39.6064C171.071 40.1943 171.967 40.4883 173.033 40.4883Z" fill="white"/>
<path d="M40.4219 32.9355L41.6231 35.0162C48.6449 35.5879 54.8257 32.5185 55.9998 28.582C51.9373 33.0023 45.9667 33.1647 40.4219 32.9355Z" fill="#FC1C07"/>
<path d="M38.4004 29.4341L39.3493 31.0767C45.3927 30.6283 53.1859 29.7433 55.8212 24.7822C51.4543 28.9785 44.5344 29.0296 38.7392 29.4122C38.6512 29.418 38.5367 29.4242 38.4004 29.4341Z" fill="#FC1C07"/>
<path d="M43.0021 37.4051L47.1531 44.594H39.8445L28 24.0791H27.9995H27.999L16.1548 44.594H8.84611L12.9969 37.4051C8.42164 37.6626 3.87763 36.663 0.265625 31.9188C2.16879 45.5345 13.8593 56.014 27.9995 56.014C42.1399 56.014 53.8302 45.5345 55.7333 31.9188C52.1213 36.663 47.5773 37.6626 43.0021 37.4051Z" fill="white"/>
<path d="M18.2946 28.2291L27.9991 11.42H27.9997H28.0002L37.705 28.2291C38.4567 27.9591 39.1471 27.8136 39.5537 27.7305C45.2943 26.5537 51.3278 26.476 55.4566 22.4605C52.8827 9.64954 41.5686 0 27.9997 0C14.431 0 3.11683 9.64954 0.542969 22.4605C4.67199 26.476 10.7052 26.5537 16.4462 27.7305C16.8525 27.8136 17.5431 27.9591 18.2946 28.2291Z" fill="#FC1C07"/>
<path d="M14.3769 35.0162L15.5779 32.9355C10.0331 33.1647 4.06229 33.0023 0 28.582C1.17417 32.5185 7.35492 35.5879 14.3769 35.0162Z" fill="#FC1C07"/>
<path d="M16.6511 31.0767L17.5995 29.4341C17.4634 29.4244 17.3491 29.418 17.2607 29.4122C11.4653 29.0296 4.54528 28.9785 0.178711 24.7822C2.81394 29.7435 10.6069 30.6282 16.6511 31.0767Z" fill="#FC1C07"/>
</svg>
